<mxfile host="app.diagrams.net" modified="2021-05-10T18:53:51.615Z" agent="5.0 (Windows NT 10.0; Win64; x64) AppleWebKit/537.36 (KHTML, like Gecko) Chrome/89.0.4389.128 Safari/537.36 OPR/75.0.3969.259" etag="e-kK277Xh_Y3uSSiOI8W" version="14.6.11" type="github">
  <diagram id="nJ_YSOB-cRXqN2Q_i_SR" name="Page-1">
    <mxGraphModel dx="821" dy="1621" grid="1" gridSize="10" guides="1" tooltips="1" connect="1" arrows="1" fold="1" page="1" pageScale="1" pageWidth="827" pageHeight="1169" math="0" shadow="0">
      <root>
        <mxCell id="0" />
        <mxCell id="1" parent="0" />
        <mxCell id="uW_1GmQTT63KbelZKAPu-15" value="Actor" style="shape=umlActor;verticalLabelPosition=bottom;verticalAlign=top;html=1;" vertex="1" parent="1">
          <mxGeometry x="250" y="-450" width="270" height="220" as="geometry" />
        </mxCell>
        <mxCell id="uW_1GmQTT63KbelZKAPu-16" value="package" style="shape=folder;fontStyle=1;spacingTop=10;tabWidth=40;tabHeight=14;tabPosition=left;html=1;" vertex="1" parent="1">
          <mxGeometry x="570" y="-400" width="70" height="50" as="geometry" />
        </mxCell>
      </root>
    </mxGraphModel>
  </diagram>
</mxfile>
